# xmcd CD database file
#
# Track frame offsets:
#	183
#	21528
#	47560
#	81393
#	106670
#	136033
#	149838
#	192450
#	234980
#
# Disc length: 3425 seconds
#
# Revision: 4
# Processed by: cddbd v1.5.2PL0 Copyright (c) Steve Scherf et al.
# Submitted via: CDex 1.79
#
DISCID=7b0d5f09
DTITLE=Barrelhouse - Albert Collins and Barrelhouse Live
DYEAR=1979
DGENRE=Blues
TTITLE0=Frosty
TTITLE1=Honey Hush
TTITLE2=I've Got A Mind To Travel
TTITLE3=Don't Lose Your Cool
TTITLE4=Blue River Rising
TTITLE5=Cock It On The Wall
TTITLE6=Conversation With Collins
TTITLE7=Keep Your Business Straight
TTITLE8=Things I Used To Do
EXTD=YEAR: 1979
EXTT0=
EXTT1=
EXTT2=
EXTT3=
EXTT4=
EXTT5=
EXTT6=
EXTT7=
EXTT8=
PLAYORDER=
